<svg xmlns="http://www.w3.org/2000/svg" xmlns:xlink="http://www.w3.org/1999/xlink" width="691.59" height="141.79" viewBox="0 0 691.59 141.79">
  <defs>
    <filter id="Path_181" x="-0.001" y="0" width="128.441" height="141.79" filterUnits="userSpaceOnUse">
      <feOffset dy="3" input="SourceAlpha"/>
      <feGaussianBlur stdDeviation="3" result="blur"/>
      <feFlood flood-opacity="0.161"/>
      <feComposite operator="in" in2="blur"/>
      <feComposite in="SourceGraphic"/>
    </filter>
  </defs>
  <g id="Group_57536" data-name="Group 57536" transform="translate(9 6)">
    <g id="Group_214" data-name="Group 214" transform="translate(0 0)">
      <g transform="matrix(1, 0, 0, 1, -9, -6)" filter="url(#Path_181)">
        <path id="Path_181-2" data-name="Path 181" d="M176.085,52.84q-12.3-.306-24.674-.477V1.324Q163.783,2.4,176.085,4.347Zm-42.811-.649q-12.412-.069-24.82,0V.217q12.406-.435,24.82,0ZM90.32,1.324V52.363q-12.374.17-24.676.477V4.347Q77.938,2.4,90.32,1.324M66.738,70.976q11.752.285,23.582.448v39A69.38,69.38,0,0,1,66.738,70.976m41.717,51.208V71.6q12.406.069,24.82,0v50.587a48.792,48.792,0,0,1-24.82,0m42.957-11.757v-39q11.824-.165,23.582-.448a69.412,69.412,0,0,1-23.582,39.452" transform="translate(-56.64 6)"/>
      </g>
      <g id="Group_6" data-name="Group 6" transform="translate(180.767 4.816)">
        <g id="Group_3" data-name="Group 3" transform="translate(0 0)">
          <path id="Path_174" data-name="Path 174" d="M37.258,84.4v47.721h-21.4V84.4H0V195.383H15.855V146.391h21.4v48.992H53.115V84.4Z" transform="translate(0 -82.814)"/>
          <path id="Path_175" data-name="Path 175" d="M63.317,148.611v46.772H47.463V148.135L24.154,84.4H41.593l13.8,44.076h.949L69.815,84.4H86.621Z" transform="translate(40.059 -82.813)"/>
          <g id="Grupo_5" data-name="Grupo 5" transform="translate(134.298 0)">
            <path id="Path_176" data-name="Path 176" d="M71.921,84.4c4.759,0,13.951.476,20.93,5.388C102.838,96.924,103,108.817,103,115.317c0,7.292-.633,12.364-4.759,17.282a22.643,22.643,0,0,1-6.021,5.072,15.788,15.788,0,0,1,7.611,6.976C103,150.2,103,153.21,103,158.6V167c0,4.6,0,16.014-9.512,23.146-3.488,2.7-9.352,5.232-18.869,5.232h-24.1V84.4Zm-5.548,45.977h7.614c5.388,0,8.557-2.22,10.147-4.121,1.9-2.22,3.009-6.027,3.009-9.515v-6.816a11.718,11.718,0,0,0-3.009-7.611c-1.906-1.9-5.078-3.648-10.307-3.648H66.373Zm0,50.736h7.135c2.379,0,7.451-.314,10.78-4.913,2.7-3.647,2.855-9.355,2.855-11.258V159.71c0-5.388-.789-9.2-4.28-12.207a12.044,12.044,0,0,0-8.4-2.855H66.373Z" transform="translate(-50.518 -82.815)"/>
            <path id="Path_177" data-name="Path 177" d="M97.589,84.4c8.087,0,19.818-.476,27.27,8.72,3.647,4.437,5.865,11.1,5.865,19.342v8.4c0,7.132-2.533,13.794-5.865,17.6a22.034,22.034,0,0,1-8.4,5.708L133.9,195.385h-16.49L102.029,147.5H92.674v47.881H76.819V84.4Zm-4.915,48.832h9.039a13.431,13.431,0,0,0,9.831-3.645c3.171-3.015,3.331-5.711,3.331-9.99v-7.927c0-4.283-1.59-8.087-3.65-10.15-3.168-3.168-6.976-2.853-10.307-2.853H92.674Z" transform="translate(-6.9 -82.815)"/>
            <rect id="Rectangle_168" data-name="Rectangle 168" width="15.855" height="110.983" transform="translate(140.481 1.585)"/>
            <path id="Path_178" data-name="Path 178" d="M137.884,84.4c6.659,0,16.171.314,23.15,6.657C169.121,98.508,169.6,110.24,169.6,115V163.99c0,7.608-.8,15.7-7.133,22.671-6.978,7.614-16.176,8.722-22.36,8.722H116.482V84.4Zm-5.548,95.445h7.135c3.328,0,7.452-.476,10.626-3.807,3.328-3.645,3.645-9.352,3.645-13V113.887c0-3.172-.476-7.135-3.015-10.3-3.009-3.65-6.34-3.65-10.3-3.65h-8.087Z" transform="translate(58.877 -82.813)"/>
            <path id="Path_179" data-name="Path 179" d="M186.425,187.808a18.687,18.687,0,0,1-7.608,7.454c-4.6,2.536-9.671,2.693-12.367,2.693-5.711,0-12.367-1.425-17.6-7.927-5.072-6.34-5.708-14.268-5.708-19.34v-56.13c0-6.659.319-13.476,5.234-20.294,6.34-8.876,16.331-10.464,22.355-10.464,8.246,0,15.219,2.7,19.659,7.135,4.283,4.28,8.087,11.415,8.087,21.719v4.44H182.621v-5.548c0-2.7-.317-6.183-3.172-9.038a11.637,11.637,0,0,0-8.56-3.168,11.219,11.219,0,0,0-8.879,3.964C159,106.947,159,111.071,159,115.034V167.04c0,3.326.16,8.084,2.7,11.413a11.211,11.211,0,0,0,8.882,3.966,12.23,12.23,0,0,0,9.193-4.439c2.855-3.647,2.855-9.039,2.855-13v-14.9H169.145V135.8h29.33V196.37h-7.927Z" transform="translate(103.089 -83.8)"/>
            <path id="Path_180" data-name="Path 180" d="M170.876,84.4h47.091V99.46H186.731v32.661h27.589v14.271H186.731v33.932h31.712v15.06H170.876Z" transform="translate(149.083 -82.814)"/>
          </g>
          <g id="Grupo_4" data-name="Grupo 4" transform="translate(134.298 0)">
            <path id="Path_176-2" data-name="Path 176" d="M71.921,84.4c4.759,0,13.951.476,20.93,5.388C102.838,96.924,103,108.817,103,115.317c0,7.292-.633,12.364-4.759,17.282a22.643,22.643,0,0,1-6.021,5.072,15.788,15.788,0,0,1,7.611,6.976C103,150.2,103,153.21,103,158.6V167c0,4.6,0,16.014-9.512,23.146-3.488,2.7-9.352,5.232-18.869,5.232h-24.1V84.4Zm-5.548,45.977h7.614c5.388,0,8.557-2.22,10.147-4.121,1.9-2.22,3.009-6.027,3.009-9.515v-6.816a11.718,11.718,0,0,0-3.009-7.611c-1.906-1.9-5.078-3.648-10.307-3.648H66.373Zm0,50.736h7.135c2.379,0,7.451-.314,10.78-4.913,2.7-3.647,2.855-9.355,2.855-11.258V159.71c0-5.388-.789-9.2-4.28-12.207a12.044,12.044,0,0,0-8.4-2.855H66.373Z" transform="translate(-50.518 -82.815)"/>
            <path id="Path_177-2" data-name="Path 177" d="M97.589,84.4c8.087,0,19.818-.476,27.27,8.72,3.647,4.437,5.865,11.1,5.865,19.342v8.4c0,7.132-2.533,13.794-5.865,17.6a22.034,22.034,0,0,1-8.4,5.708L133.9,195.385h-16.49L102.029,147.5H92.674v47.881H76.819V84.4Zm-4.915,48.832h9.039a13.431,13.431,0,0,0,9.831-3.645c3.171-3.015,3.331-5.711,3.331-9.99v-7.927c0-4.283-1.59-8.087-3.65-10.15-3.168-3.168-6.976-2.853-10.307-2.853H92.674Z" transform="translate(-6.9 -82.815)"/>
            <rect id="Rectangle_168-2" data-name="Rectangle 168" width="15.855" height="110.983" transform="translate(140.481 1.585)"/>
            <path id="Path_178-2" data-name="Path 178" d="M137.884,84.4c6.659,0,16.171.314,23.15,6.657C169.121,98.508,169.6,110.24,169.6,115V163.99c0,7.608-.8,15.7-7.133,22.671-6.978,7.614-16.176,8.722-22.36,8.722H116.482V84.4Zm-5.548,95.445h7.135c3.328,0,7.452-.476,10.626-3.807,3.328-3.645,3.645-9.352,3.645-13V113.887c0-3.172-.476-7.135-3.015-10.3-3.009-3.65-6.34-3.65-10.3-3.65h-8.087Z" transform="translate(58.877 -82.813)"/>
            <path id="Path_179-2" data-name="Path 179" d="M186.425,187.808a18.687,18.687,0,0,1-7.608,7.454c-4.6,2.536-9.671,2.693-12.367,2.693-5.711,0-12.367-1.425-17.6-7.927-5.072-6.34-5.708-14.268-5.708-19.34v-56.13c0-6.659.319-13.476,5.234-20.294,6.34-8.876,16.331-10.464,22.355-10.464,8.246,0,15.219,2.7,19.659,7.135,4.283,4.28,8.087,11.415,8.087,21.719v4.44H182.621v-5.548c0-2.7-.317-6.183-3.172-9.038a11.637,11.637,0,0,0-8.56-3.168,11.219,11.219,0,0,0-8.879,3.964C159,106.947,159,111.071,159,115.034V167.04c0,3.326.16,8.084,2.7,11.413a11.211,11.211,0,0,0,8.882,3.966,12.23,12.23,0,0,0,9.193-4.439c2.855-3.647,2.855-9.039,2.855-13v-14.9H169.145V135.8h29.33V196.37h-7.927Z" transform="translate(103.089 -83.8)"/>
            <path id="Path_180-2" data-name="Path 180" d="M170.876,84.4h47.091V99.46H186.731v32.661h27.589v14.271H186.731v33.932h31.712v15.06H170.876Z" transform="translate(149.083 -82.814)"/>
          </g>
        </g>
      </g>
    </g>
  </g>
</svg>
